<?xml version="1.0" encoding="UTF-8"?>
<svg viewBox="0 0 128 128" xmlns="http://www.w3.org/2000/svg">
 <defs>
  <filter id="e" x="-.026" y="-.187" width="1.053" height="1.375" color-interpolation-filters="sRGB">
   <feGaussianBlur stdDeviation="0.16513"/>
  </filter>
  <radialGradient id="f" cx="31.834" cy="61.673" r="7.509" gradientTransform="matrix(1 0 0 .14085 0 52.987)" gradientUnits="userSpaceOnUse">
   <stop offset="0"/>
   <stop stop-opacity="0" offset="1"/>
  </radialGradient>
  <linearGradient id="g" x2="0" y1="117.6" y2="6.28" gradientUnits="userSpaceOnUse">
   <stop stop-color="#af0400" offset="0"/>
   <stop stop-color="#e85752" offset="1"/>
  </linearGradient>
  <radialGradient id="h" cx="64" cy="-20.401" r="60.41" gradientTransform="matrix(1.3647 -.023158 .015632 .92124 -23.024 6.3223)" gradientUnits="userSpaceOnUse">
   <stop stop-color="#eee" offset="0"/>
   <stop stop-color="#eee" stop-opacity="0" offset="1"/>
  </radialGradient>
 </defs>
 <path transform="matrix(1.6701 0 0 2.5275 10.833 -35.797)" d="m39.343 61.673a7.5091 1.0576 0 1 1 -15.018 0 7.5091 1.0576 0 1 1 15.018 0z" fill="url(#f)" fill-rule="evenodd" filter="url(#e)" opacity=".23"/>
 <path d="m92.469 3.375c-11.893 0.031575-22.372 6.155-28.531 15.375-6.2022-9.1753-16.646-15.25-28.531-15.219-18.975 0.050378-34.425 15.555-34.375 34.531 0.049596 18.681 9.7817 30.806 21.969 42.062s26.938 22.099 38.844 39.125a2.8967 2.8967 0 0 0 4.7812 -0.0625c11.143-16.944 25.855-28.146 38.125-39.625s22.267-23.659 22.219-41.844c-0.05036-18.972-15.527-34.394-34.5-34.344z" fill="#9c0f0f"/>
 <symbol transform="translate(334.4 -157.09)" fill-rule="evenodd" viewBox="89.4717 132.972 31.0566 31.0566">
  <path d="m97.255 133.01h15.49c4.2599 0 7.7451 3.4852 7.7451 7.7451v15.49c0 4.2599-3.4852 7.7451-7.7451 7.7451h-15.49c-4.2599 0-7.7451-3.4852-7.7451-7.7451v-15.49c0-4.2599 3.4852-7.7451 7.7451-7.7451z" fill="none" stroke="#1f1a17" stroke-width=".076"/>
 </symbol>
 <path d="m35.397 6.4315c-17.408 0.046216-31.498 14.212-31.452 31.619 0.09402 35.413 35.841 44.603 60.277 79.548 22.922-34.856 59.945-45.585 59.854-79.867-0.04621-17.408-14.212-31.498-31.619-31.452-12.627 0.033524-23.475 7.518-28.481 18.258-5.0638-10.713-15.951-18.14-28.578-18.106z" fill="url(#g)"/>
 <path d="m92.469 7.2812c-12.236 0.032485-22.745 7.2557-27.594 17.656a0.99502 0.99502 0 0 1 -1.8125 0.03125c-4.9045-10.376-15.42-17.564-27.656-17.531-16.869 0.044786-30.514 13.756-30.469 30.625 0.046122 17.372 8.7462 28.189 20.688 39.219 11.676 10.785 26.392 21.672 38.562 38.625 11.46-16.926 26.129-28.169 37.906-39.188 12.051-11.274 21.013-22.217 20.969-39-0.04478-16.87-13.724-30.482-30.594-30.438z" fill="none" stroke="url(#h)" stroke-width="2.7"/>
</svg>
