<?xml version="1.0" encoding="UTF-8" standalone="no"?>
<svg
   id="Calque_1"
   data-name="Calque 1"
   viewBox="0 0 25 30"
   version="1.1"
   sodipodi:docname="fleche.svg"
   inkscape:export-filename="C:\Users\Acs\OneDrive\Bureau\E-commerce\fleche.png"
   inkscape:export-xdpi="96"
   inkscape:export-ydpi="96"
   inkscape:version="1.1 (c68e22c387, 2021-05-23)"
   xmlns:inkscape="http://www.inkscape.org/namespaces/inkscape"
   xmlns:sodipodi="http://sodipodi.sourceforge.net/DTD/sodipodi-0.dtd"
   xmlns="http://www.w3.org/2000/svg"
   xmlns:svg="http://www.w3.org/2000/svg">
  <sodipodi:namedview
     id="namedview17"
     pagecolor="#ffffff"
     bordercolor="#666666"
     borderopacity="1.0"
     inkscape:pageshadow="2"
     inkscape:pageopacity="0.0"
     inkscape:pagecheckerboard="0"
     showgrid="false"
     inkscape:zoom="17.066667"
     inkscape:cx="12.509766"
     inkscape:cy="15.029297"
     inkscape:window-width="1366"
     inkscape:window-height="697"
     inkscape:window-x="-8"
     inkscape:window-y="303"
     inkscape:window-maximized="1"
     inkscape:current-layer="Calque_1" />
  <defs
     id="defs4">
    <style
       id="style2">.cls-1{fill:#fff;}</style>
  </defs>
  <path
     class="cls-1"
     d="M277.5,426.06V440h-25v-3l13.58-11.94-13.58-11.95c.05-1.65-.64-3.27,2.51-3.11,7.47.38,15,.13,22.46.13v13.93l-4.32-2.65-4.35,3.63,3.82,3.76Zm-9.76-3.25,2.72-3-13.07-8Zm.55,4.47-11.38,10.18.53.7,13-8Z"
     transform="translate(-252.5 -410)"
     id="path6" />
  <path
     d="M252.53,413.12l13.58,11.95L252.53,437Z"
     transform="translate(-252.5 -410)"
     id="path8" />
  <path
     d="M277.5,426.06l-4.85,2.75-3.82-3.76,4.35-3.63,4.32,2.65Z"
     transform="translate(-252.5 -410)"
     id="path10" />
  <path
     d="M267.74,422.81l-10.35-11,13.07,8Z"
     transform="translate(-252.5 -410)"
     id="path12" />
  <path
     d="M268.29,427.28l2.12,2.93-13,8-.53-.7Z"
     transform="translate(-252.5 -410)"
     id="path14" />
</svg>
